<svg version="1.1"
    xmlns="http://www.w3.org/2000/svg" width="1150pt" height="190pt" viewBox="0 0 1100 190">
    <g transform="matrix(0.1,0,0,-0.1,18,302)" fill="black" stroke="none">
        <path d="M 4891 2862.5 c -13 -8 -28 -21 -33 -29 c -5 -9 -26 -25 -47 -35 c -20 -11 -61 -38 -90 -61 c -29 -23 -67 -46 -84 -52 c -18 -6 -43 -19 -56 -30 c -31 -24 -33 -24 -94 17 c -51 35 -53 35 -162 35 c -60 0 -192 -7 -293 -15 c -213 -17 -525 -21 -597 -6 c -115 23 -930 23 -967 0 c -25 -16 13 -29 88 -29 c 40 0 107 -6 150 -14 c 44 -8 142 -19 219 -25 c 77 -6 154 -13 170 -15 c 17 -2 62 -7 100 -11 c 39 -3 86 -11 105 -16 c 156 -41 206 -48 260 -38 c 30 5 80 14 110 18 c 30 5 66 13 80 19 c 72 31 540 82 618 67 c 51 -9 120 -60 150 -111 c 37 -61 57 -67 112 -35 c 25 14 63 44 86 66 c 145 143 205 195 227 195 c 2 0 12 -28 22 -62 c 22 -79 70 -180 99 -207 c 22 -20 24 -21 67 -6 c 24 9 103 27 174 40 c 144 27 237 30 620 21 c 487 -12 793 -26 837 -37 c 83 -21 522 -18 678 6 c 123 18 287 29 425 29 c 202 -1 623 -12 780 -20 c 66 -4 145 -8 175 -8 c 55 -1 55 -1 58 31 c 7 68 7 68 -225 71 c -114 2 -248 7 -298 13 c -49 5 -160 18 -245 27 c -167 18 -417 19 -535 3 c -38 -6 -135 -18 -215 -26 c -80 -9 -174 -21 -209 -27 c -59 -10 -449 -6 -766 7 c -55 2 -190 7 -300 10 c -110 4 -216 8 -235 10 c -19 2 -172 5 -340 6 c -168 1 -337 5 -374 8 l -69 6 l -15 45 c -31 94 -57 143 -87 162 c -34 21 -41 21 -74 3 z"/>
        <path d="M 388 2333.5 c -79 -41 -238 -144 -307 -198 c -72 -56 -81 -67 -81 -95 c 0 -20 5 -33 13 -33 c 7 0 45 23 86 50 c 41 28 78 50 82 50 c 5 0 9 -30 9 -67 c 0 -69 -25 -351 -36 -411 c -11 -59 53 -127 84 -89 c 7 8 11 110 11 282 c 0 149 1 284 1 300 c 1 34 37 61 151 113 c 71 32 89 55 64 82 c -22 25 -49 30 -77 16 z"/>
        <path d="M 4771 2268.5 c -11 -7 -12 -35 -6 -147 c 3 -77 9 -191 12 -254 c 5 -126 18 -160 57 -160 c 32 0 52 49 49 123 c -1 31 2 57 7 57 c 5 0 29 -7 52 -16 c 104 -39 129 -55 164 -104 c 43 -60 65 -74 87 -57 c 54 43 3 120 -121 184 c -45 24 -83 46 -83 50 c -1 4 26 19 58 33 c 72 31 129 76 138 110 c 11 46 -49 100 -135 122 c -19 5 -51 14 -70 19 c -19 6 -53 13 -75 16 c -22 3 -55 11 -74 19 c -39 16 -42 17 -60 5 z m 233 -126 c 65 -8 121 -17 124 -19 c 11 -11 -22 -36 -101 -75 c -46 -23 -99 -44 -119 -47 l -35 -6 l -6 47 c -11 75 -9 115 6 115 c 7 0 66 -7 131 -15 z"/>
        <path d="M 6205 2247.5 c -15 -17 -16 -25 -5 -62 c 15 -55 26 -428 12 -428 c -5 0 -25 17 -44 38 c -29 33 -52 78 -136 277 c -33 76 -87 118 -108 83 c -9 -15 -13 -72 -17 -252 c -2 -123 -1 -141 16 -162 c 10 -13 29 -24 42 -24 c 32 0 49 57 49 168 c 0 45 1 82 3 82 c 1 0 14 -23 28 -50 c 14 -28 41 -67 59 -88 c 18 -20 45 -56 60 -79 c 41 -66 94 -71 133 -14 c 22 33 23 42 23 238 c 0 210 -3 226 -43 271 c -25 27 -48 28 -72 2 z"/>
        <path d="M 3159 2244.5 c -16 -15 -18 -212 -4 -415 c 8 -127 29 -177 75 -177 c 33 0 37 33 16 125 c -18 76 -21 130 -7 130 c 4 0 32 -5 61 -10 c 97 -18 116 7 51 71 c -32 33 -45 39 -80 39 l -41 0 l 0 65 l 0 65 l 48 0 c 26 -1 76 -4 112 -9 c 96 -12 168 -4 176 21 c 3 11 1 30 -6 42 c -22 42 -47 49 -195 51 c -77 1 -152 5 -166 9 c -17 5 -31 3 -40 -7 z"/>
        <path d="M 3846 2242.5 c -15 -8 -38 -15 -49 -15 c -11 0 -34 -4 -51 -10 c -17 -5 -42 -12 -56 -14 c -14 -3 -37 -17 -52 -31 c -26 -24 -28 -32 -28 -104 c 0 -61 -3 -80 -15 -85 c -16 -6 -21 -56 -6 -56 c 10 0 6 -58 -9 -125 c -14 -62 -12 -82 13 -111 c 23 -26 26 -27 68 -16 c 24 6 94 14 154 18 c 61 4 116 11 123 17 c 18 14 15 44 -8 67 c -18 18 -30 20 -93 16 c -77 -6 -146 -18 -165 -30 c -9 -5 -12 6 -12 37 c 0 76 10 107 36 112 c 13 3 35 7 49 10 c 20 4 25 11 25 35 c 0 23 -7 33 -30 45 c -17 9 -38 14 -47 13 c -14 -3 -17 7 -18 55 l -1 57 l 35 1 c 144 5 211 14 244 31 c 26 13 21 53 -9 77 c -32 25 -59 26 -98 6 z"/>
        <path d="M 6457 2250.5 c -21 -5 -20 -21 2 -158 c 8 -46 10 -121 6 -218 c -7 -145 -6 -148 14 -154 c 12 -3 21 -9 21 -13 c 0 -4 12 -12 26 -19 c 66 -30 211 34 302 133 c 46 50 57 80 48 131 c -13 65 -71 115 -241 203 c -44 23 -95 56 -114 72 c -18 17 -36 29 -40 29 c -3 -1 -14 -3 -24 -6 z m 289 -224 c 44 -13 74 -42 74 -72 c 0 -33 -51 -92 -100 -117 c -38 -19 -156 -47 -164 -39 c -4 4 -9 263 -6 301 c 0 3 37 -10 83 -29 c 45 -19 96 -39 113 -44 z"/>
        <path d="M 10138 2246.5 c -24 -13 -23 -46 3 -100 c 12 -24 30 -93 40 -152 l 19 -109 l -21 -29 c -47 -66 12 -166 90 -153 c 44 7 132 35 146 46 c 5 4 17 8 26 8 c 27 0 112 39 132 61 c 67 72 50 193 -37 259 c -43 33 -145 83 -216 106 c -41 13 -93 36 -116 49 c -49 29 -44 27 -66 14 z m 167 -161 c 102 -24 201 -63 227 -89 c 30 -29 36 -70 14 -88 c -29 -25 -241 -68 -262 -54 c -10 7 -29 91 -49 217 c -6 35 -5 38 12 31 c 10 -4 36 -12 58 -17 z"/>
        <path d="M 769 2231.5 c -9 -11 -13 -40 -11 -88 c 2 -70 -17 -238 -37 -326 c -6 -25 -10 -71 -11 -102 c 0 -50 3 -60 25 -74 c 23 -15 28 -15 72 0 c 28 10 80 16 129 16 c 87 0 100 6 90 44 c -10 42 -85 62 -141 37 c -28 -12 -106 -33 -110 -29 c -2 2 2 30 9 63 l 12 60 l 69 3 c 99 4 122 33 68 86 c -32 32 -70 43 -95 27 c -20 -13 -23 -4 -9 33 c 6 13 11 56 12 95 l 2 71 l 32 0 c 18 0 48 -6 66 -14 c 19 -7 55 -17 81 -20 c 42 -6 47 -5 53 15 c 6 18 1 29 -23 50 c -32 29 -63 39 -168 58 c -81 15 -99 14 -115 -5 z"/>
        <path d="M 9884 2221.5 c -4 -16 2 -46 16 -82 c 12 -31 26 -75 30 -97 c 10 -46 13 -169 4 -178 c -11 -11 -83 58 -184 178 c -71 84 -163 175 -178 175 c -5 0 -17 -9 -26 -19 c -15 -16 -16 -25 -6 -58 c 6 -21 15 -65 20 -98 c 32 -239 41 -274 79 -294 c 13 -7 23 -7 34 2 c 14 10 15 22 6 87 c -6 41 -11 84 -11 94 c 1 10 -6 44 -13 74 c -8 31 -13 58 -10 60 c 2 2 40 -33 84 -80 c 43 -46 107 -104 141 -128 c 34 -25 71 -53 82 -62 c 54 -46 98 3 98 109 c 0 77 -33 209 -70 283 c -27 53 -34 60 -60 60 c -23 0 -31 -5 -36 -26 z"/>
        <path d="M 1423 2229.5 c -50 -5 -56 -20 -38 -98 c 9 -38 20 -82 25 -99 c 21 -68 69 -284 75 -339 l 7 -59 l -34 6 c -64 9 -86 -25 -51 -84 c 36 -61 108 -72 195 -29 c 86 42 110 59 155 107 c 90 97 108 177 52 232 c -27 27 -108 61 -146 61 c -15 0 -17 16 -3 25 c 6 4 29 31 51 62 c 35 47 40 60 36 90 c -10 58 -62 93 -167 112 c -78 15 -114 18 -157 13 z m 246 -101 c 25 -16 3 -59 -66 -126 c -37 -36 -71 -65 -75 -65 c -20 0 -40 175 -21 193 c 10 10 146 8 162 -2 z m 109 -294 c 17 -20 3 -58 -36 -99 c -39 -41 -135 -93 -156 -85 c -7 3 -16 25 -19 49 c -3 23 -9 62 -13 86 l -7 42 l 36 0 c 20 0 39 5 42 10 c 9 15 140 13 153 -3 z"/>
        <path d="M 2707 2220.5 c -13 -48 -18 -82 -27 -209 c -27 -344 -27 -339 31 -370 c 41 -21 61 -6 49 36 c -5 17 -10 58 -11 92 l -2 63 l 80 -2 c 101 -2 176 -31 200 -77 c 24 -49 44 -66 74 -66 c 36 0 40 9 28 54 c -19 68 -132 166 -192 166 c -9 0 -19 5 -22 10 c -3 6 -19 10 -34 10 c -15 0 -30 3 -34 6 c -5 6 31 58 76 108 c 25 29 73 116 81 149 c 6 24 4 27 -18 27 c -17 0 -52 -30 -130 -112 l -106 -113 l 0 111 c 0 72 -4 114 -12 122 c -17 17 -26 15 -31 -5 z"/>
        <path d="M 4141 2228.5 c -10 -7 -12 -21 -8 -52 c 6 -44 -18 -388 -28 -397 c -12 -12 -24 27 -61 201 c -21 100 -50 141 -80 116 c -19 -16 -15 -71 15 -197 c 37 -154 87 -232 148 -232 c 62 0 79 53 89 280 c 4 83 12 156 19 170 c 16 32 6 59 -35 93 c -35 30 -39 31 -59 18 z"/>
        <path d="M 4400 2227.5 c -94 -12 -100 -19 -101 -130 c -1 -52 -1 -99 0 -104 c 1 -4 -5 -18 -12 -30 c -21 -32 -9 -216 16 -244 c 22 -24 64 -37 80 -24 c 7 5 63 12 126 16 c 120 7 141 14 141 50 c 0 39 -28 66 -68 66 c -48 0 -154 -26 -194 -46 c -38 -20 -46 -11 -40 43 c 4 42 4 42 51 48 c 58 8 111 31 111 48 c 0 8 -9 26 -21 41 c -18 22 -28 26 -75 26 l -54 0 l 0 81 c 0 72 2 80 18 75 c 19 -6 230 -9 275 -4 c 47 5 60 41 27 76 c -19 20 -30 22 -123 21 c -56 -1 -127 -5 -157 -9 z"/>
        <path d="M 7050 2227.5 c -8 -5 -33 -10 -56 -10 c -29 0 -46 -6 -62 -23 c -12 -13 -20 -25 -18 -28 c 2 -2 10 -93 17 -202 c 16 -254 17 -257 124 -257 c 66 0 75 2 75 18 c 0 26 -34 54 -61 50 c -27 -4 -36 20 -38 92 l -1 45 l 57 -3 c 65 -4 133 19 133 44 c 0 8 -12 27 -26 41 c -25 25 -29 26 -105 20 l -79 -6 l 0 58 c 0 69 6 73 83 66 c 29 -2 94 -7 145 -10 l 92 -6 l 0 29 c 0 29 -17 50 -56 70 c -28 15 -205 24 -224 12 z"/>
        <path d="M 2447 2197.5 c -19 -16 -54 -60 -79 -97 c -146 -220 -107 -420 87 -439 c 52 -5 67 -3 113 21 c 62 31 65 48 17 95 l -35 34 l -48 -16 c -26 -9 -66 -20 -88 -23 c -37 -6 -42 -4 -48 17 c -10 40 -6 121 8 169 c 22 73 40 102 106 168 c 33 34 60 65 60 71 c 0 10 -32 30 -49 30 c -6 0 -26 -13 -44 -30 z"/>
        <path d="M 5681 2218.5 c -14 -9 -13 -30 9 -156 c 18 -102 8 -202 -24 -250 c -28 -41 -54 -64 -73 -65 c -21 0 -50 103 -67 240 c -9 74 -22 150 -27 168 c -13 40 -45 60 -64 40 c -20 -21 16 -292 51 -387 c 29 -78 76 -137 116 -143 c 56 -9 130 45 166 120 c 26 54 27 65 27 209 l 0 152 l -40 41 c -40 41 -51 46 -74 31 z"/>
        <path d="M 7375 2204.5 c -14 -23 -14 -30 1 -97 c 9 -39 19 -139 22 -222 c 6 -131 9 -152 25 -162 c 15 -9 22 -7 38 13 c 10 13 19 37 19 55 c 0 59 9 60 106 16 c 143 -66 194 -93 232 -123 c 40 -31 62 -23 62 21 c 0 61 -54 103 -218 168 c -46 18 -50 36 -11 44 c 95 20 152 102 116 167 c -26 47 -129 98 -215 108 c -18 2 -38 8 -45 13 c -7 5 -35 13 -64 17 c -47 6 -53 5 -68 -18 z m 209 -119 c 111 -28 118 -33 76 -52 c -19 -9 -55 -27 -79 -41 c -24 -14 -57 -25 -73 -25 c -26 0 -28 3 -28 38 c 0 20 -3 55 -7 76 c -6 35 -4 39 12 32 c 11 -4 55 -16 99 -28 z"/>
        <path d="M 8386 2204.5 c -14 -20 -13 -27 1 -67 c 15 -43 25 -186 23 -323 c -2 -76 15 -128 38 -120 c 37 13 52 36 52 80 c 0 31 4 43 14 43 c 8 0 17 -4 20 -9 c 3 -5 26 -14 50 -20 c 36 -9 112 -54 211 -125 c 7 -5 20 -6 30 -2 c 22 8 14 56 -16 94 c -33 43 -128 101 -204 124 c -38 12 -73 25 -77 28 c -5 3 21 21 57 39 c 81 42 135 99 135 143 c 0 72 -123 138 -258 138 c -53 0 -64 -3 -76 -23 z m 233 -91 c 19 -7 37 -18 39 -24 c 4 -12 -129 -102 -152 -102 c -8 0 -16 15 -19 38 c -4 20 -9 52 -13 70 l -6 32 l 58 -1 c 33 0 74 -6 93 -13 z"/>
        <path d="M 534 2150.5 c -4 -38 -7 -100 -7 -139 l 1 -72 l -57 -16 c -32 -9 -60 -16 -64 -16 c -4 0 -7 35 -7 78 c 0 59 -5 85 -20 110 c -11 17 -24 32 -30 32 c -23 0 -28 -48 -29 -262 l -1 -227 l 28 -26 c 57 -53 72 -29 61 105 c -4 57 -7 105 -6 106 c 1 1 30 4 65 7 c 71 8 70 9 51 -84 c -6 -30 -10 -70 -10 -89 c 3 -53 52 -98 93 -85 c 20 7 20 12 16 139 c -3 99 -1 135 9 144 c 13 13 8 37 -12 62 c -8 9 -15 68 -19 149 c -6 132 -11 150 -43 151 c -7 0 -14 -27 -19 -67 z"/>
        <path d="M 8041 2206.5 c -41 -16 -141 -110 -163 -152 c -59 -117 -57 -201 8 -269 c 22 -22 56 -48 76 -59 c 51 -26 177 -42 263 -34 c 63 7 73 11 103 43 c 19 19 38 46 43 59 c 23 60 -4 158 -45 166 c -12 2 -84 1 -161 -2 c -132 -6 -140 -7 -143 -27 c -2 -12 9 -34 28 -54 l 30 -32 l 76 7 c 42 4 89 11 106 16 c 17 4 35 6 39 3 c 17 -10 -14 -52 -52 -68 c -37 -17 -48 -17 -161 -2 c -150 19 -163 27 -155 105 c 4 32 15 66 26 82 c 12 16 21 32 21 37 c 0 11 80 87 106 100 c 15 8 31 8 58 0 c 60 -19 74 18 25 70 c -22 24 -83 29 -128 11 z"/>
        <path d="M 1864 2170.5 c -12 -47 5 -356 22 -406 c 19 -57 62 -100 115 -116 c 36 -11 44 -10 75 10 c 39 24 84 68 84 83 c 0 5 6 17 14 25 c 7 9 22 41 32 71 c 33 94 7 280 -44 321 c -26 20 -67 25 -77 10 c -3 -6 3 -36 14 -68 c 37 -113 9 -255 -67 -336 c -35 -37 -64 -32 -78 13 c -7 19 -15 116 -19 215 c -4 99 -12 186 -17 193 c -18 22 -47 14 -54 -15 z"/>
        <path d="M 9375 2184.5 c -20 -15 -18 -32 10 -107 c 11 -27 18 -77 19 -123 c 1 -77 0 -79 -32 -108 c -39 -35 -81 -38 -117 -6 c -23 20 -27 33 -36 126 c -6 58 -15 116 -21 130 c -9 24 -11 24 -22 9 c -9 -12 -11 -49 -9 -120 c 6 -165 47 -223 167 -235 c 70 -7 107 8 142 58 c 23 34 27 50 28 117 c 1 91 -32 211 -69 248 c -28 28 -35 29 -60 11 z"/>
        <path d="M 8807 2127.5 c -32 -26 -70 -106 -75 -162 c -4 -38 1 -59 23 -102 c 49 -96 98 -126 210 -126 c 58 0 64 2 99 37 c 43 43 50 65 44 136 c -6 70 -32 122 -94 184 l -51 52 l -67 -1 c -48 0 -72 -5 -89 -18 z m 161 -105 c 21 -19 44 -52 52 -74 c 11 -35 11 -43 -4 -66 c -26 -40 -81 -60 -128 -46 c -58 18 -68 34 -68 105 c 0 49 5 69 21 90 c 31 39 78 36 127 -9 z"/>
        <path d="M 4341 1500 c -21 -26 -7 -116 21 -138 c 25 -19 98 -24 114 -9 c 5 6 34 14 64 20 c 30 5 75 15 100 21 c 51 13 298 27 378 22 c 28 -2 52 -8 52 -14 c 0 -5 12 -34 26 -64 c 24 -52 80 -104 111 -104 c 16 0 83 59 83 74 c 0 6 7 19 15 30 c 13 17 34 19 277 22 c 145 3 346 9 448 14 c 102 6 220 10 263 10 c 87 0 98 9 77 60 c -11 27 -16 29 -49 25 c -136 -19 -767 -27 -1016 -12 c -27 2 -34 -5 -75 -75 c -25 -42 -50 -77 -56 -78 c -15 0 -40 55 -49 107 c -4 24 -11 46 -17 49 c -12 8 -567 6 -579 -2 c -5 -3 -30 -9 -57 -13 c -26 -5 -55 -12 -64 -16 c -14 -6 -18 -2 -18 18 c 0 14 -8 35 -18 47 c -16 20 -19 21 -31 6 z"/>
    </g>
</svg>
